<svg viewBox="0 0 300 300" xmlns="http://www.w3.org/2000/svg">
  <path
    fill="#1d1d1b"
    d="m190.24666,263.27922l-125,0l0,-254.81l126.1,0c13.85,0 90.73,-2.17 90.73,63.34c0,46.94 -47,51.68 -60.85,55.33l0,9.45c22.59,3.69 67.44,8.69 67.44,59.69c0,57.51 -61.62,67 -98.42,67zm-11.65,-108.85l-43.37,0l0,68.78l43.37,0c24.79,0 36.8,-8 36.8,-34.58c0,-26.19 -12.01,-34.2 -36.8,-34.2zm-5.47,-106.64l-37.54,0l0,63.69l37.54,0c23,0 34.25,-7.29 34.25,-31.66c0,-24.74 -11.3,-32.03 -34.25,-32.03z"
  />
  <rect fill="#e1251b" height="16" width="112" x="65" y="276" />
  <rect fill="#001c71" height="16" width="112" x="177" y="276" />
</svg>
