<svg viewBox="0 0 1670 600" xmlns="http://www.w3.org/2000/svg">

 <g>
  <title>Layer 1</title>
  <g>

   <path fill="#1d1d1b" d="m190.24666,263.27922l-125,0l0,-254.81l126.1,0c13.85,0 90.73,-2.17 90.73,63.34c0,46.94 -47,51.68 -60.85,55.33l0,9.45c22.59,3.69 67.44,8.69 67.44,59.69c0,57.51 -61.62,67 -98.42,67zm-11.65,-108.85l-43.37,0l0,68.78l43.37,0c24.79,0 36.8,-8 36.8,-34.58c0,-26.19 -12.01,-34.2 -36.8,-34.2zm-5.47,-106.64l-37.54,0l0,63.69l37.54,0c23,0 34.25,-7.29 34.25,-31.66c0,-24.74 -11.3,-32.03 -34.25,-32.03z" class="cls-1"/>
   <path fill="#1d1d1b" d="m389.88666,134.39922l0,128.88l-68.12,0l0,-191.11l61.57,0l0,19.66c33.14,-22.22 55,-21.49 74,-21.49l0,54.6c-13.89,0 -49.95,-2.92 -67.45,9.46z" class="cls-1"/>
   <path fill="#1d1d1b" d="m553.04666,72.16922l0,118.66c0,9.81 1.46,28.74 27,28.74c14.2,0 32,-8 36.43,-10.19l0,-137.21l68.16,0l0,191.11l-61.62,0l0,-19.7c-24.79,11.65 -41.91,24.75 -75.44,24.75c-26.58,0 -62.67,-16.74 -62.67,-60.77l0,-135.39l68.14,0z" class="cls-1"/>
   <path fill="#1d1d1b" d="m869.02666,263.27922l0,-116.87c0,-9.82 -1.47,-28.74 -27,-28.74c-14.23,0 -32.07,6.18 -36.45,8.38l0,137.23l-68.09,0l0,-191.11l61.59,0l0,19.66c24.77,-11.63 45.52,-22.93 79.07,-22.93c26.61,0 59,16 59,60l0,134.38l-68.12,0z" class="cls-1"/>
   <path fill="#1d1d1b" d="m1075.51666,269.04922c-40.08,0 -105.68,2.93 -105.68,-63.67c0,-65.14 77.27,-60.06 131.94,-60.06c-0.37,-24.39 -3,-37.11 -46.29,-37.11c-31.72,0 -67.07,6.18 -67.07,6.18l0,-38.57a554.46,554.46 0 0 1 84.53,-6.92c44.85,0 96.2,4.72 96.2,64.05l0,129.92s-58.29,6.18 -93.63,6.18zm27.32,-86.95c-5.85,-0.39 -24.05,-0.39 -28.77,-0.39c-18.23,0 -36.46,1.48 -36.46,25.15c0,24 18.23,25.45 36.46,25.45a191.13,191.13 0 0 0 28.77,-2.16l0,-48.05z" class="cls-1"/>
   <path fill="#1d1d1b" d="m1295.97666,263.27922c-49.55,0 -62.29,-22.57 -62.29,-68.42l0,-76.11l-38.62,0l0,-46.58l38.6,0l0,-44l67,-26.22l0,70.26l60.51,0l0,46.23l-60.51,0l0,69.51c0,25.49 10.93,29.09 28.06,29.09l33.94,0l0,46.24l-66.69,0z" class="cls-1"/>
   <path fill="#1d1d1b" d="m1495.22666,269.04922c-40.08,0 -105.65,2.93 -105.65,-63.67c0,-65.14 77.23,-60.06 131.89,-60.06c-0.37,-24.39 -2.92,-37.11 -46.28,-37.11c-31.71,0 -67,6.18 -67,6.18l0,-38.57a554.06,554.06 0 0 1 84.55,-6.92c44.8,0 96.18,4.72 96.18,64.05l0,129.92s-58.35,6.18 -93.69,6.18zm27.32,-86.95c-5.8,-0.39 -24,-0.39 -28.77,-0.39c-18.23,0 -36.43,1.48 -36.43,25.15c0,24 18.2,25.45 36.43,25.45a191.13,191.13 0 0 0 28.77,-2.16l0,-48.05z" class="cls-1"/>
   <rect fill="#e1251b" height="28.98" width="825.4" y="331.78922" x="1.66666" class="cls-2"/>
   <rect fill="#001c71" height="28.98" width="824.45" y="331.78922" x="827.21666" class="cls-3"/>
   <path d="m612.12666,568.04922c-43.87,0 -53.27,-22.38 -53.27,-57s9.4,-57.15 53.27,-57.15s53.42,22.38 53.42,57.15s-9.4,57 -53.42,57zm0,-97c-24.92,0 -27.91,13 -27.91,39.84s3,39.84 27.91,39.84s28,-13 28,-39.84s-2.93,-39.83 -28,-39.83l0,-0.01z"/>
   <path d="m771.03666,566.10922l-18.2,0a2.29,2.29 0 0 1 -2.54,-2.24l0,-51.78c0,-8.2 -3.28,-10.89 -10.15,-10.89a76.07,76.07 0 0 0 -15.07,1.94l0,60.73a2.16,2.16 0 0 1 -2.39,2.24l-18.2,0a2.16,2.16 0 0 1 -2.39,-2.24l0,-65.06c0,-5.67 3.73,-7.46 12.39,-9.55a138.32,138.32 0 0 1 28.65,-3.43c18.95,0 30.29,4.48 30.29,23.13l0,54.91a2.24,2.24 0 0 1 -2.39,2.24z"/>
   <path d="m848.47666,562.97922a2.26,2.26 0 0 1 -1.49,2.23c-1.35,0.6 -5.67,2.24 -14.33,2.24c-15.22,0 -22.23,-8.65 -22.23,-21l0,-86.58c0,-1.94 0.45,-2.84 2.39,-3.13l17.31,-2.84l0.74,0a2.29,2.29 0 0 1 2.54,2.54l0,87.84c0,5.23 3,6.72 5.82,6.72a32.82,32.82 0 0 0 5.07,-0.45c0.15,0 0.3,-0.15 0.45,-0.15c1.19,0 1.64,0.75 1.79,1.79l1.94,10.3l0,0.49z"/>
   <path d="m902.19666,566.10922l-18.21,0a2.24,2.24 0 0 1 -2.39,-2.24l0,-72.07a2.24,2.24 0 0 1 2.39,-2.24l18.21,0a2.23,2.23 0 0 1 2.38,2.24l0,72.07a2.23,2.23 0 0 1 -2.38,2.24zm-1.94,-87.29l-14.33,0c-2.83,0 -4.18,-1 -4.18,-3.88l0,-17.16c0,-2.69 1.35,-3.88 4.18,-3.88l14.33,0c2.83,0 4.17,1.19 4.17,3.88l0,17.16c0,2.83 -1.34,3.88 -4.17,3.88z"/>
   <path d="m1013.50666,566.10922l-18.21,0a2.28,2.28 0 0 1 -2.53,-2.24l0,-51.78c0,-8.2 -3.29,-10.89 -10.15,-10.89a76.07,76.07 0 0 0 -15.07,1.94l0,60.73a2.16,2.16 0 0 1 -2.39,2.24l-18.2,0a2.16,2.16 0 0 1 -2.39,-2.24l0,-65.06c0,-5.67 3.73,-7.46 12.39,-9.55a138.14,138.14 0 0 1 28.64,-3.43c19,0 30.29,4.48 30.29,23.13l0,54.91a2.23,2.23 0 0 1 -2.38,2.24z"/>
   <path d="m1124.36666,532.82922c0,2 -0.75,3.88 -3.58,3.88l-48.2,0c0,6.27 2.09,9.85 6.42,12.69c3.73,2.24 8.8,3.28 16.11,3.28c9.11,0 16.72,-2.39 20.59,-3.43a0.56,0.56 0 0 1 0.45,-0.15c1,0 1.94,0.75 2.39,2.39l1.94,8.2a2.64,2.64 0 0 1 0.15,0.9a2.7,2.7 0 0 1 -1.64,2.54a78,78 0 0 1 -27.76,4.92c-29.09,0 -41.48,-10.74 -41.48,-40.74c0,-29.09 8.66,-41.48 37.6,-41.48c14.78,0 24,3.43 29.7,10.15c5.52,6.71 7.46,16.56 7.46,29.69c0,1.79 -0.15,5.08 -0.15,7.16zm-22.53,-10.89a56.92,56.92 0 0 0 -0.9,-10.59c-1.79,-7.76 -5.82,-10.3 -13.28,-10.3c-9.4,0 -12.83,3 -14.17,9.7c-0.75,3.73 -0.75,7.61 -0.9,12.09l29.25,0l0,-0.9z"/>
  </g>
 </g>
</svg>